<?xml version="1.0" standalone="no"?>
<!DOCTYPE svg PUBLIC "-//W3C//DTD SVG 20010904//EN"
 "http://www.w3.org/TR/2001/REC-SVG-20010904/DTD/svg10.dtd">
<svg version="1.0" xmlns="http://www.w3.org/2000/svg"
 width="284.000000pt" height="284.000000pt" viewBox="0 0 284.000000 284.000000"
 preserveAspectRatio="xMidYMid meet">
<metadata>
Created by potrace 1.14, written by Peter Selinger 2001-2017
</metadata>
<g transform="translate(0.000000,284.000000) scale(0.100000,-0.100000)"
fill="#000000" stroke="none">
<path d="M1385 2225 c-253 -211 -464 -390 -469 -398 -22 -35 6 -66 224 -248
l220 -183 0 -346 0 -347 -77 -64 c-362 -302 -373 -311 -373 -335 0 -30 33 -64
63 -64 14 0 175 127 467 371 245 203 455 381 468 395 45 51 39 58 -203 260
l-225 187 0 347 0 346 220 184 c139 115 223 192 226 207 9 34 -20 73 -54 73
-21 -1 -134 -90 -487 -385z m-25 -425 c0 -152 -4 -230 -10 -230 -14 0 -275
218 -275 229 0 12 257 229 273 230 9 1 12 -51 12 -229z m272 -631 c73 -62 133
-115 133 -120 0 -11 -262 -229 -275 -229 -6 0 -10 78 -10 230 0 131 4 230 9
230 5 0 69 -50 143 -111z"/>
</g>
</svg>
