<?xml version="1.0" standalone="no"?>
<!DOCTYPE svg PUBLIC "-//W3C//DTD SVG 20010904//EN"
 "http://www.w3.org/TR/2001/REC-SVG-20010904/DTD/svg10.dtd">
<svg version="1.0" xmlns="http://www.w3.org/2000/svg"
 width="284.000000pt" height="284.000000pt" viewBox="0 0 284.000000 284.000000"
 preserveAspectRatio="xMidYMid meet">
<metadata>
Created by potrace 1.14, written by Peter Selinger 2001-2017
</metadata>
<g transform="translate(0.000000,284.000000) scale(0.100000,-0.100000)"
fill="#000000" stroke="none">
<path d="M1387 2233 c-256 -214 -471 -398 -478 -411 -18 -32 -2 -54 91 -132
41 -34 137 -114 213 -178 l137 -114 0 -349 0 -348 -212 -177 c-225 -187 -237
-199 -238 -226 0 -18 54 -68 75 -68 16 0 921 750 949 786 11 15 16 33 12 47
-3 13 -95 97 -222 202 -119 99 -220 190 -225 203 -5 13 -9 168 -9 344 l0 321
42 40 c22 21 65 58 93 81 111 88 291 240 307 260 10 12 18 28 18 37 0 21 -48
69 -70 69 -9 0 -227 -174 -483 -387z m-39 -547 l-3 -114 -130 108 c-71 59
-131 112 -132 117 -2 4 43 47 98 93 56 47 116 97 133 112 l31 26 3 -114 c1
-63 1 -165 0 -228z m340 -569 c39 -33 72 -63 72 -67 0 -4 -60 -58 -132 -118
-109 -91 -134 -108 -140 -94 -8 21 -10 389 -2 419 6 22 9 20 68 -29 33 -28 94
-78 134 -111z"/>
</g>
</svg>
